<?xml version="1.0" standalone="no"?>
<!DOCTYPE svg PUBLIC "-//W3C//DTD SVG 20010904//EN"
 "http://www.w3.org/TR/2001/REC-SVG-20010904/DTD/svg10.dtd">
<svg version="1.0" xmlns="http://www.w3.org/2000/svg"
 width="512.000000pt" height="512.000000pt" viewBox="0 0 512.000000 512.000000"
 preserveAspectRatio="xMidYMid meet">
<metadata>
Created by potrace 1.14, written by Peter Selinger 2001-2017
</metadata>
<g transform="translate(0.000000,512.000000) scale(0.100000,-0.100000)"
fill="#000000" stroke="none">
<path d="M2410 5074 c-96 -25 -216 -90 -279 -152 -47 -46 -63 -72 -88 -137
-45 -118 -57 -186 -57 -325 1 -115 3 -132 33 -214 41 -115 58 -224 45 -302
l-9 -59 -40 5 c-22 3 -103 4 -180 4 -121 -2 -155 -6 -256 -32 -533 -141 -1018
-512 -1306 -999 -141 -240 -233 -526 -264 -822 -15 -145 -6 -508 16 -651 96
-625 381 -1068 805 -1251 208 -89 422 -114 690 -78 97 13 128 23 196 64 l55
33 55 -18 c351 -121 1083 -130 1471 -17 l82 24 48 -29 48 -29 175 5 c198 6
308 24 476 81 547 183 898 661 980 1335 20 166 15 512 -10 660 -112 655 -516
1206 -1116 1523 -167 89 -377 163 -529 188 -129 21 -410 6 -494 -27 -11 -4
-50 28 -124 103 -84 84 -122 131 -170 213 -111 186 -130 297 -74 416 44 94 76
108 193 83 134 -29 152 -152 44 -313 -31 -46 -40 -68 -32 -74 6 -5 67 -40 135
-77 l124 -68 29 34 c44 51 121 185 152 262 50 125 50 260 0 358 -66 131 -240
231 -492 284 -91 19 -259 18 -332 -1z m-980 -2624 c169 -135 315 -228 498
-319 89 -45 174 -86 187 -91 36 -14 31 -25 -23 -48 -102 -44 -243 -55 -338
-27 -138 41 -332 220 -412 380 -28 54 -62 172 -62 212 0 15 2 15 18 1 9 -9 69
-57 132 -108z m2389 22 c-48 -208 -259 -444 -451 -504 -67 -20 -191 -24 -253
-7 -56 15 -135 50 -135 59 0 4 82 48 183 97 206 102 342 190 536 345 74 59
136 106 138 104 2 -2 -6 -44 -18 -94z m307 -627 c-121 -264 -367 -513 -637
-646 l-67 -32 -38 30 c-66 50 -65 51 -58 -10 l7 -55 -82 -26 c-45 -14 -114
-33 -154 -42 l-71 -17 -37 42 c-20 22 -39 41 -42 41 -2 0 -7 -22 -11 -49 l-6
-48 -48 -6 c-26 -4 -86 -9 -133 -13 l-86 -6 -30 52 -31 53 -33 -53 -33 -53
-140 6 c-89 4 -142 11 -147 18 -4 7 -10 36 -14 66 -3 29 -9 53 -13 53 -4 -1
-27 -25 -51 -55 -33 -42 -48 -54 -65 -50 -59 12 -243 58 -263 66 -20 7 -22 13
-16 61 l6 52 -51 -37 -50 -38 -93 40 c-318 137 -574 364 -684 605 -18 39 -35
85 -39 101 l-6 30 16 -30 c76 -137 232 -268 428 -360 50 -24 111 -50 136 -58
44 -14 45 -16 54 -70 l9 -54 58 34 58 35 88 -20 c48 -12 111 -24 138 -28 64
-9 81 -18 89 -48 3 -14 11 -37 16 -52 l11 -27 52 50 52 50 106 -10 106 -9 34
-70 c19 -38 37 -72 40 -74 4 -2 28 28 55 66 l48 70 67 0 c36 0 79 2 95 5 26 5
34 0 77 -55 26 -33 51 -60 55 -60 5 0 18 29 31 64 l22 63 68 7 c37 3 107 13
156 21 l89 16 32 -38 32 -38 13 49 14 48 133 43 133 44 48 -34 c27 -19 51 -35
55 -35 3 0 6 15 6 34 0 79 6 88 93 134 117 61 257 164 351 257 45 44 82 79 84
79 1 -1 -13 -36 -32 -79z"/>
</g>
</svg>
